<svg width="10" height="12" viewBox="0 0 10 12" fill="none" xmlns="http://www.w3.org/2000/svg">
<path d="M6.2877 12H1.85615C0.832639 12 0 11.1589 0 10.125V3.77344C0 2.73953 0.832639 1.89844 1.85615 1.89844H6.2877C7.31121 1.89844 8.14385 2.73953 8.14385 3.77344V10.125C8.14385 11.1589 7.31121 12 6.2877 12ZM1.85615 2.83594C1.34444 2.83594 0.928074 3.25653 0.928074 3.77344V10.125C0.928074 10.6419 1.34444 11.0625 1.85615 11.0625H6.2877C6.79941 11.0625 7.21578 10.6419 7.21578 10.125V3.77344C7.21578 3.25653 6.79941 2.83594 6.2877 2.83594H1.85615ZM10 8.95312V1.875C10 0.841095 9.16736 0 8.14385 0H2.99304C2.73673 0 2.529 0.209839 2.529 0.46875C2.529 0.727661 2.73673 0.9375 2.99304 0.9375H8.14385C8.65556 0.9375 9.07193 1.35809 9.07193 1.875V8.95312C9.07193 9.21204 9.27966 9.42188 9.53596 9.42188C9.79227 9.42188 10 9.21204 10 8.95312Z" fill="#525151"/>
</svg>
