<svg width="18" height="18" viewBox="0 0 18 18" fill="none" xmlns="http://www.w3.org/2000/svg">
<path d="M9 18C13.9706 18 18 13.9706 18 9C18 4.02944 13.9706 0 9 0C4.02944 0 0 4.02944 0 9C0 13.9706 4.02944 18 9 18Z" fill="#039BE5"/>
<path d="M4.11826 8.80491L12.7958 5.45916C13.1985 5.31366 13.5503 5.55741 13.4198 6.16641L13.4205 6.16566L11.943 13.1264C11.8335 13.6199 11.5403 13.7399 11.13 13.5074L8.88001 11.8492L7.79476 12.8947C7.67476 13.0147 7.57351 13.1159 7.34101 13.1159L7.50076 10.8262L11.6708 7.05891C11.8523 6.89916 11.6303 6.80916 11.391 6.96816L6.23776 10.2127L4.01626 9.51966C3.53401 9.36666 3.52351 9.03741 4.11826 8.80491V8.80491Z" fill="white"/>
</svg>
