<svg width="20" height="20" viewBox="0 0 20 20" fill="none" xmlns="http://www.w3.org/2000/svg">
<g clip-path="url(#clip0)">
<path d="M12.0003 0H7.9998C4.13945 0 0.998901 3.14055 0.998901 7.0009V10.0013C0.998901 12.7115 2.56195 15.171 4.99941 16.3279V19.6692C4.99941 19.9593 5.36234 20.111 5.56851 19.9049L8.47121 17.0022H12.0003C15.8606 17.0022 19.0012 13.8616 19.0012 10.0013V7.0009C19.0012 3.14055 15.8606 0 12.0003 0Z" fill="#665CAC"/>
<path d="M5.99953 16.3279C3.56207 15.1709 1.99902 12.7114 1.99902 10.0013V7.00086C1.99902 3.14055 5.13961 0 8.99992 0H7.9998C4.13945 0 0.998901 3.14055 0.998901 7.0009V10.0013C0.998901 12.7115 2.56195 15.171 4.99941 16.3279V19.6692C4.99941 19.9593 5.36234 20.111 5.56851 19.9049L5.99953 19.4739V16.3279Z" fill="#523494"/>
<path d="M15.0332 12.4258L14.7335 10.8021C14.7087 10.668 14.6048 10.5624 14.471 10.5357L12.1137 10.0642C12.0042 10.0424 11.8914 10.0766 11.8125 10.1554L10.8548 11.1131C9.24125 10.3901 8.3457 9.49264 7.55773 7.80979L8.51234 6.85522C8.59113 6.77639 8.62535 6.66334 8.60351 6.55405L8.13207 4.1967C8.10531 4.06299 7.9998 3.95901 7.86566 3.93424L6.24199 3.63455C6.19754 3.62639 6.15175 3.62725 6.10761 3.63729C5.6789 3.73467 5.28773 3.95069 4.97636 4.26213C4.43722 4.80127 4.23117 5.58799 4.38054 6.53725C4.63129 8.13123 5.41222 10.3495 6.85304 11.7961L6.87273 11.8156C8.3182 13.2555 10.5365 14.0365 12.1306 14.2872C12.3314 14.3189 12.5248 14.3346 12.7103 14.3346C13.4015 14.3346 13.9806 14.1165 14.4058 13.6914C14.7171 13.38 14.9332 12.9888 15.0306 12.5602C15.0405 12.516 15.0414 12.4703 15.0332 12.4258Z" fill="white"/>
<path d="M8.18638 7.18119L8.51232 6.85521L8.51267 6.85486L8.18634 7.18115L8.18638 7.18119Z" fill="#E5E5E5"/>
<path d="M11.8127 10.155L11.4835 10.4841L11.4836 10.4842L11.8127 10.1551L11.8127 10.155Z" fill="#E5E5E5"/>
<path d="M13.3388 13.7058C13.1534 13.7058 12.96 13.6901 12.7591 13.6585C11.1651 13.4077 8.94679 12.6267 7.50128 11.1869L7.48159 11.1674C6.04077 9.72075 5.25984 7.50247 5.00909 5.90849C4.88843 5.14157 4.99999 4.48083 5.33159 3.97095C5.2046 4.05567 5.08542 4.15286 4.97624 4.26204C4.4371 4.80118 4.23105 5.5879 4.38042 6.53716C4.63116 8.13114 5.4121 10.3494 6.85292 11.796L6.87261 11.8156C8.31808 13.2554 10.5364 14.0364 12.1305 14.2872C12.3313 14.3188 12.5247 14.3345 12.7101 14.3345C13.4014 14.3345 13.9805 14.1165 14.4057 13.6913C14.5148 13.5821 14.612 13.463 14.6967 13.336C14.3203 13.5808 13.8617 13.7058 13.3388 13.7058Z" fill="#E5E5E5"/>
<path d="M10.6669 5.6676C10.4828 5.6676 10.3336 5.81686 10.3336 6.00096C10.3336 6.18506 10.4828 6.33432 10.6669 6.33432C11.4022 6.33432 12.0004 6.93252 12.0004 7.66784C12.0004 7.84948 12.1521 8.0012 12.3338 8.0012C12.5154 8.0012 12.6671 7.84948 12.6671 7.66784C12.6672 6.56487 11.7699 5.6676 10.6669 5.6676Z" fill="white"/>
<path d="M10.6668 4.33398C10.5435 4.33398 10.419 4.34082 10.2968 4.3543C10.1138 4.37449 9.98185 4.53922 10.002 4.72227C10.0222 4.90531 10.1873 5.03695 10.37 5.01707C10.468 5.00625 10.5678 5.00074 10.6668 5.00074C12.1374 5.00074 13.3338 6.19715 13.3338 7.66773C13.3338 7.76676 13.3283 7.8666 13.3175 7.96457C13.2975 8.14508 13.4317 8.31266 13.6123 8.33254C13.7928 8.35242 13.9603 8.21832 13.9802 8.03773C13.9937 7.91555 14.0006 7.79109 14.0006 7.66773C14.0006 5.82953 12.505 4.33398 10.6668 4.33398Z" fill="white"/>
<path d="M10.6672 3.00049C10.5481 3.00049 10.4274 3.00502 10.3087 3.01404C10.1251 3.02795 9.98749 3.18811 10.0014 3.37166C10.0153 3.55525 10.176 3.69283 10.359 3.67893C10.4611 3.67115 10.5648 3.66725 10.6672 3.66725C12.8731 3.66725 14.6677 5.46186 14.6677 7.66775C14.6677 7.97986 14.6317 8.29057 14.5607 8.59119C14.52 8.76346 14.626 8.94252 14.7969 8.98932C14.9766 9.03854 15.1667 8.92584 15.2096 8.74455C15.2925 8.39373 15.3345 8.03147 15.3345 7.66775C15.3345 5.0942 13.2408 3.00049 10.6672 3.00049Z" fill="white"/>
</g>
<defs>
<clipPath id="clip0">
<rect width="20" height="20" fill="white"/>
</clipPath>
</defs>
</svg>
