<svg width="12" height="12" viewBox="0 0 12 12" fill="none" xmlns="http://www.w3.org/2000/svg">
<path d="M11.8082 3.0486L11.4151 2.65279C11.2914 2.52918 11.1268 2.46109 10.9509 2.46109C10.7751 2.46109 10.6103 2.52918 10.4866 2.65279L6.00268 7.13693L1.51357 2.64782C1.39006 2.52421 1.22528 2.45621 1.04947 2.45621C0.873666 2.45621 0.708786 2.52421 0.585176 2.64782L0.192002 3.04119C-0.0640005 3.29699 -0.0640005 3.71368 0.192002 3.96949L5.53683 9.33353C5.66034 9.45704 5.82493 9.54407 6.00229 9.54407H6.00434C6.18025 9.54407 6.34483 9.45695 6.46835 9.33353L11.8082 3.98402C11.9319 3.86051 11.9998 3.69095 12 3.51514C12 3.33924 11.9319 3.17202 11.8082 3.0486Z" fill="#525151"/>
</svg>
