<svg width="200" height="44" viewBox="0 0 200 44" fill="none" xmlns="http://www.w3.org/2000/svg">
<g clip-path="url(#clip0)">
<path d="M114.456 13.1661C116.244 5.96173 111.885 0 101.208 0H78.0656L69.3952 35.2356L74.4281 43.9029H90.891C101.678 43.9029 110.035 38.8535 112.183 30.0761C113.265 25.5772 112.01 22.4312 109.188 20.8582V20.7481C111.865 19.0087 113.756 16.2871 114.456 13.1661V13.1661ZM100.345 29.7929C99.9063 31.6334 98.6677 33.521 93.5407 33.521H83.0358L84.8703 25.9705H95.3281C100.392 25.9548 100.769 27.8896 100.283 29.7929H100.345ZM102.446 13.4021C102.07 14.8178 100.988 16.5481 96.5667 16.5481H87.1594L88.7273 10.4134H98.1346C102.603 10.3819 102.823 11.8291 102.446 13.4021Z" fill="#007ACC"/>
<path d="M129.022 26.8986H150.095L152.493 16.5167H131.562L133.193 10.3819H153.92L156.319 0H122.296L111.509 43.8871H150.047L152.572 33.5052H127.47L129.022 26.8986Z" fill="#007ACC"/>
<path d="M159.267 0L156.852 10.3819H169.442L161.179 43.8871H174.397L182.675 10.3819H196.159L198.746 0H159.267Z" fill="#007ACC"/>
<path d="M12.5749 43.8871H-0.752182L5.01765 20.4492L6.35036 16.9099L2.82261 20.4492L-1.09712 24.4289L-1.25391 12.7257L12.5749 0H23.3463L12.5749 43.8871Z" fill="#1C285F"/>
<path d="M60.6934 25.7031L56.4444 18.4829L77.0622 0H57.8555L50.0161 7.55048L23.4247 32.0109L10.662 43.8871H28.8339L42.4902 31.6648L47.0841 39.5299C48.652 41.5119 50.8627 43.9186 60.2387 43.9186H71.2139L60.7091 25.6874L60.6934 25.7031Z" fill="#1C285F"/>
<path d="M48.5423 5.12796V5.03358C47.3659 3.38706 45.7962 2.06331 43.9772 1.18381C42.1582 0.304314 40.1481 -0.102765 38.1315 -7.07304e-05H23.9421L34.5253 18.0582L48.5423 5.12796Z" fill="#1C285F"/>
</g>
<defs>
<clipPath id="clip0">
<rect width="200" height="43.8871" fill="white"/>
</clipPath>
</defs>
</svg>
