<svg width="20" height="20" viewBox="0 0 20 20" fill="none" xmlns="http://www.w3.org/2000/svg">
<path d="M9.99996 10.8232C12.9887 10.8232 15.4116 8.40034 15.4116 5.41158C15.4116 2.42281 12.9887 0 9.99996 0C7.01119 0 4.58838 2.42285 4.58838 5.41162C4.59205 8.39882 7.01275 10.8195 9.99996 10.8232ZM9.99996 2.49766C11.6093 2.49766 12.9139 3.80226 12.9139 5.41162C12.9139 7.02097 11.6093 8.32557 9.99996 8.32557C8.3906 8.32557 7.086 7.02097 7.086 5.41162C7.086 3.80226 8.39064 2.49766 9.99996 2.49766Z" fill="#FF9800"/>
<path d="M15.3008 13.3875C15.8889 13.0001 16.2433 12.3433 16.2441 11.6391C16.2523 11.0547 15.9225 10.518 15.3974 10.2612C14.8579 9.99174 14.2121 10.0524 13.7323 10.4178C11.5085 12.039 8.49226 12.039 6.26844 10.4178C5.78788 10.0543 5.14321 9.99373 4.60332 10.2612C4.07846 10.5179 3.7485 11.054 3.75579 11.6382C3.75704 12.3424 4.11128 12.9989 4.69909 13.3866C5.45323 13.8881 6.27449 14.2805 7.13849 14.5522C7.28503 14.5977 7.43626 14.6399 7.59224 14.6788L5.07628 17.139C4.41627 17.7793 4.40031 18.8335 5.04069 19.4935C5.68106 20.1535 6.73519 20.1695 7.39524 19.5291C7.40898 19.5158 7.42248 19.5022 7.43575 19.4884L10 16.8342L12.5693 19.4934C13.2091 20.1539 14.2633 20.1707 14.9238 19.5309C15.5843 18.891 15.6011 17.8369 14.9613 17.1764C14.9479 17.1625 14.9343 17.149 14.9204 17.1356L12.4086 14.6779C12.5645 14.6379 12.7164 14.5955 12.864 14.5505C13.7271 14.2799 14.5475 13.8883 15.3008 13.3875Z" fill="#FF9800"/>
</svg>
