<svg width="18" height="18" viewBox="0 0 18 18" fill="none" xmlns="http://www.w3.org/2000/svg">
<g clip-path="url(#clip0)">
<path d="M17.4817 10.9102C18.7852 5.05266 13.6537 -0.268586 7.6275 0.752914C4.356 -1.27734 0 1.01691 0 4.90941C0 5.81466 0.24975 6.66216 0.684 7.39266C-0.52725 13.2637 4.64625 18.5084 10.6672 17.4172C11.3692 17.7884 12.1702 17.9999 13.0215 17.9999C16.7332 17.9999 19.11 14.1502 17.4817 10.9102ZM9.072 14.9092C7.3155 14.9092 5.5995 14.4854 4.584 13.0349C3.0705 10.8944 5.06625 9.82341 6.04575 10.6394C6.86325 11.3287 6.60675 12.9959 9.0075 12.9959C10.0657 12.9959 11.3722 12.5444 11.3722 11.4952C11.3722 9.38391 6.6885 10.3829 4.82625 8.08116C4.14225 7.23816 4.01325 5.75091 4.85325 4.67241C6.31725 2.78841 10.6132 2.67366 12.4605 4.09641C14.166 5.41641 13.7055 7.16841 12.3292 7.16841C10.674 7.16841 11.544 5.00241 8.87175 5.00241C6.9345 5.00241 6.1725 6.38016 7.53675 7.05066C9.3525 7.95216 14.0992 7.67091 14.0992 11.2529C14.0932 13.7707 11.664 14.9092 9.072 14.9092V14.9092Z" fill="#03A9F4"/>
</g>
<defs>
<clipPath id="clip0">
<rect width="18" height="18" fill="white"/>
</clipPath>
</defs>
</svg>
