<svg width="18" height="18" viewBox="0 0 18 18" fill="none" xmlns="http://www.w3.org/2000/svg">
<path d="M9.00225 0H8.99775C4.03538 0 0 4.0365 0 9C0 10.9688 0.6345 12.7935 1.71338 14.2751L0.59175 17.6186L4.05113 16.5128C5.47425 17.4555 7.17187 18 9.00225 18C13.9646 18 18 13.9624 18 9C18 4.03763 13.9646 0 9.00225 0Z" fill="#4CAF50"/>
<path d="M14.2392 12.7092C14.0221 13.3223 13.1603 13.8308 12.4729 13.9793C12.0027 14.0795 11.3884 14.1593 9.32068 13.3021C6.67581 12.2063 4.97256 9.5187 4.83981 9.34433C4.71268 9.16995 3.77106 7.92121 3.77106 6.62971C3.77106 5.33821 4.42693 4.70933 4.69131 4.43933C4.90843 4.21771 5.26731 4.11646 5.61156 4.11646C5.72293 4.11646 5.82306 4.12208 5.91306 4.12658C6.17743 4.13783 6.31018 4.15358 6.48456 4.57096C6.70168 5.09408 7.23043 6.38558 7.29343 6.51833C7.35756 6.65108 7.42168 6.83108 7.33168 7.00546C7.24731 7.18546 7.17306 7.26533 7.04031 7.41833C6.90756 7.57133 6.78156 7.68833 6.64881 7.85258C6.52731 7.99546 6.39006 8.14846 6.54306 8.41283C6.69606 8.67158 7.22481 9.53445 8.00331 10.2275C9.00793 11.1218 9.82243 11.4076 10.1138 11.5291C10.3309 11.6191 10.5897 11.5977 10.7483 11.429C10.9497 11.2118 11.1983 10.8518 11.4514 10.4975C11.6314 10.2432 11.8587 10.2117 12.0972 10.3017C12.3402 10.3861 13.6261 11.0217 13.8904 11.1533C14.1548 11.2861 14.3292 11.3491 14.3933 11.4605C14.4563 11.5718 14.4563 12.095 14.2392 12.7092Z" fill="#FAFAFA"/>
</svg>
